<?xml version="1.0" standalone="no"?>
<!DOCTYPE svg PUBLIC "-//W3C//DTD SVG 20010904//EN"
 "http://www.w3.org/TR/2001/REC-SVG-20010904/DTD/svg10.dtd">
<svg version="1.0" xmlns="http://www.w3.org/2000/svg"
 width="478.000000pt" height="522.000000pt" viewBox="0 0 478.000000 522.000000"
 preserveAspectRatio="xMidYMid meet">

<g transform="translate(0.000000,522.000000) scale(0.100000,-0.100000)"
fill="#000000" stroke="none">
<path d="M2326 3854 c-321 -58 -617 -244 -785 -494 -41 -60 -101 -164 -101
-174 0 -3 24 -6 53 -6 83 0 93 -13 141 -170 93 -304 176 -584 181 -614 4 -20
11 -38 15 -41 4 -2 22 46 40 108 18 62 36 123 41 137 4 14 43 140 84 280 56
185 83 262 100 279 l23 24 252 0 c223 0 253 -2 268 -17 19 -19 32 22 -178
-561 -107 -297 -164 -457 -245 -685 -45 -127 -59 -156 -84 -170 -12 -6 -97
-10 -206 -10 -145 0 -186 -3 -183 -12 6 -19 127 -108 203 -150 478 -266 1076
-180 1465 211 149 150 251 319 305 505 40 140 48 215 42 396 -4 142 -9 181
-36 284 -33 125 -98 269 -169 373 -180 263 -499 462 -822 513 -91 14 -310 11
-404 -6z m736 -232 c135 -49 196 -203 132 -337 -43 -93 -111 -135 -216 -135
-150 1 -248 99 -248 247 0 55 6 77 28 117 59 107 185 151 304 108z"/>
</g>
</svg>
